<?xml version="1.0" encoding="UTF-8" standalone="no"?>
<!DOCTYPE svg PUBLIC "-//W3C//DTD SVG 1.1//EN" "http://www.w3.org/Graphics/SVG/1.1/DTD/svg11.dtd">
<svg width="100%" height="100%" viewBox="0 0 512 512" version="1.1" xmlns="http://www.w3.org/2000/svg" xmlns:xlink="http://www.w3.org/1999/xlink" xml:space="preserve" xmlns:serif="http://www.serif.com/" style="fill-rule:evenodd;clip-rule:evenodd;stroke-miterlimit:10;">
    <path d="M416.07,272C416.07,184.227 343.843,112 256.07,112C168.297,112 96.07,184.227 96.07,272C96.07,359.773 168.297,432 256.07,432C343.843,432 416.07,359.773 416.07,272ZM142.12,91.21C133.726,84.027 123.048,80.053 112,80L109.21,80.08C83.66,81.62 64,104 64.07,131C64.07,144.21 68.73,150.37 74.95,158.23C75.731,159.251 76.909,159.894 78.19,160L79.07,160C80.074,159.982 81.014,159.497 81.61,158.69L142.38,99C143.428,97.94 143.99,96.49 143.93,95C143.879,93.541 143.223,92.167 142.12,91.21ZM369.88,91.21C378.274,84.027 388.952,80.053 400,80L402.79,80.08C428.34,81.62 448,104 447.93,131C447.93,144.21 443.27,150.37 437.05,158.23C436.267,159.247 435.089,159.887 433.81,159.99L432.93,159.99C431.926,159.972 430.986,159.487 430.39,158.68L369.62,99C368.572,97.94 368.01,96.49 368.07,95C368.121,93.541 368.777,92.167 369.88,91.21Z" style="fill:none;fill-rule:nonzero;stroke:rgb(230,126,34);stroke-width:32px;"/>
    <path d="M256.07,160L256.07,272L176.07,272M416.07,432L376.07,392M96.07,432L136.07,392" style="fill:none;fill-rule:nonzero;stroke:rgb(230,126,34);stroke-width:32px;stroke-linecap:round;stroke-linejoin:round;stroke-miterlimit:4;"/>
</svg>
