<?xml version="1.0" encoding="UTF-8" standalone="no"?>
<!DOCTYPE svg PUBLIC "-//W3C//DTD SVG 1.1//EN" "http://www.w3.org/Graphics/SVG/1.1/DTD/svg11.dtd">
<svg width="100%" height="100%" viewBox="0 0 128 128" version="1.1" xmlns="http://www.w3.org/2000/svg" xmlns:xlink="http://www.w3.org/1999/xlink" xml:space="preserve" xmlns:serif="http://www.serif.com/" style="fill-rule:evenodd;clip-rule:evenodd;stroke-linejoin:round;stroke-miterlimit:2;">
    <g transform="matrix(1,0,0,1,-141,0)">
        <g id="Prancheta1" transform="matrix(1,0,0,1,141,0)">
            <rect x="0" y="0" width="128" height="128" style="fill:none;"/>
            <clipPath id="_clip1">
                <rect x="0" y="0" width="128" height="128"/>
            </clipPath>
            <g clip-path="url(#_clip1)">
                <g transform="matrix(1,0,0,1,2.84217e-14,6.5)">
                    <g transform="matrix(1.29825,0,0,1.29825,-196.096,-14.2807)">
                        <circle cx="201.5" cy="39.5" r="28.5" style="fill:rgb(230,126,34);"/>
                    </g>
                    <g transform="matrix(1,0,0,1,-141,0)">
                        <path d="M141,115L269,115L269,112.163C269,99.931 259.069,90 246.837,90L163.163,90C150.931,90 141,99.931 141,112.163L141,115Z" style="fill:rgb(230,126,34);"/>
                    </g>
                </g>
            </g>
        </g>
    </g>
</svg>
